<svg width="18" height="17" viewBox="0 0 18 17" fill="none" xmlns="http://www.w3.org/2000/svg">
<path d="M14.25 0H3.75C2.7558 0.00119089 1.80267 0.396661 1.09966 1.09966C0.396661 1.80267 0.00119089 2.7558 0 3.75L0 12.75C0.00119089 13.7442 0.396661 14.6973 1.09966 15.4003C1.80267 16.1033 2.7558 16.4988 3.75 16.5H14.25C15.2442 16.4988 16.1973 16.1033 16.9003 15.4003C17.6033 14.6973 17.9988 13.7442 18 12.75V3.75C17.9988 2.7558 17.6033 1.80267 16.9003 1.09966C16.1973 0.396661 15.2442 0.00119089 14.25 0ZM3.75 1.5H14.25C14.8467 1.5 15.419 1.73705 15.841 2.15901C16.2629 2.58097 16.5 3.15326 16.5 3.75V4.5H1.5V3.75C1.5 3.15326 1.73705 2.58097 2.15901 2.15901C2.58097 1.73705 3.15326 1.5 3.75 1.5ZM14.25 15H3.75C3.15326 15 2.58097 14.7629 2.15901 14.341C1.73705 13.919 1.5 13.3467 1.5 12.75V6H16.5V12.75C16.5 13.3467 16.2629 13.919 15.841 14.341C15.419 14.7629 14.8467 15 14.25 15ZM14.25 9C14.25 9.19891 14.171 9.38968 14.0303 9.53033C13.8897 9.67098 13.6989 9.75 13.5 9.75H4.5C4.30109 9.75 4.11032 9.67098 3.96967 9.53033C3.82902 9.38968 3.75 9.19891 3.75 9C3.75 8.80109 3.82902 8.61032 3.96967 8.46967C4.11032 8.32902 4.30109 8.25 4.5 8.25H13.5C13.6989 8.25 13.8897 8.32902 14.0303 8.46967C14.171 8.61032 14.25 8.80109 14.25 9ZM11.25 12C11.25 12.1989 11.171 12.3897 11.0303 12.5303C10.8897 12.671 10.6989 12.75 10.5 12.75H4.5C4.30109 12.75 4.11032 12.671 3.96967 12.5303C3.82902 12.3897 3.75 12.1989 3.75 12C3.75 11.8011 3.82902 11.6103 3.96967 11.4697C4.11032 11.329 4.30109 11.25 4.5 11.25H10.5C10.6989 11.25 10.8897 11.329 11.0303 11.4697C11.171 11.6103 11.25 11.8011 11.25 12ZM2.25 3C2.25 2.85166 2.29399 2.70666 2.3764 2.58332C2.45881 2.45999 2.57594 2.36386 2.71299 2.30709C2.85003 2.25032 3.00083 2.23547 3.14632 2.26441C3.2918 2.29335 3.42544 2.36478 3.53033 2.46967C3.63522 2.57456 3.70665 2.7082 3.73559 2.85368C3.76453 2.99917 3.74968 3.14997 3.69291 3.28701C3.63614 3.42406 3.54001 3.54119 3.41668 3.6236C3.29334 3.70601 3.14834 3.75 3 3.75C2.80109 3.75 2.61032 3.67098 2.46967 3.53033C2.32902 3.38968 2.25 3.19891 2.25 3ZM4.5 3C4.5 2.85166 4.54399 2.70666 4.6264 2.58332C4.70881 2.45999 4.82594 2.36386 4.96299 2.30709C5.10003 2.25032 5.25083 2.23547 5.39632 2.26441C5.5418 2.29335 5.67544 2.36478 5.78033 2.46967C5.88522 2.57456 5.95665 2.7082 5.98559 2.85368C6.01453 2.99917 5.99968 3.14997 5.94291 3.28701C5.88614 3.42406 5.79001 3.54119 5.66668 3.6236C5.54334 3.70601 5.39834 3.75 5.25 3.75C5.05109 3.75 4.86032 3.67098 4.71967 3.53033C4.57902 3.38968 4.5 3.19891 4.5 3ZM6.75 3C6.75 2.85166 6.79399 2.70666 6.8764 2.58332C6.95881 2.45999 7.07594 2.36386 7.21299 2.30709C7.35003 2.25032 7.50083 2.23547 7.64632 2.26441C7.7918 2.29335 7.92544 2.36478 8.03033 2.46967C8.13522 2.57456 8.20665 2.7082 8.23559 2.85368C8.26453 2.99917 8.24968 3.14997 8.19291 3.28701C8.13614 3.42406 8.04002 3.54119 7.91668 3.6236C7.79334 3.70601 7.64834 3.75 7.5 3.75C7.30109 3.75 7.11032 3.67098 6.96967 3.53033C6.82902 3.38968 6.75 3.19891 6.75 3Z" fill="#383838"/>
</svg>
