<svg width="28" height="28" viewBox="0 0 28 28" fill="none" xmlns="http://www.w3.org/2000/svg">
<circle cx="14" cy="14" r="14" fill="url(#paint0_linear_242_96)"/>
<g clip-path="url(#clip0_242_96)">
<path d="M21.3667 9.40753C21.3492 9.29691 21.1717 8.30316 20.4517 7.57753C19.7286 6.87003 18.7311 6.69503 18.6198 6.67753C18.4717 6.65316 18.3204 6.68441 18.1936 6.76316C18.1492 6.79066 17.4973 7.19878 16.2104 8.28691C16.8723 8.52066 17.7279 8.92628 18.4217 9.60503C19.1179 10.2863 19.5342 11.1244 19.7729 11.7744C20.8479 10.5182 21.2523 9.88191 21.2792 9.83816C21.3592 9.71003 21.3904 9.55691 21.3667 9.40753Z" fill="white"/>
<path d="M15.0938 9.26416C14.4232 9.86916 13.6426 10.6042 12.7488 11.4917C8.95943 15.2542 7.96568 16.7585 7.92506 16.8204C7.86818 16.9079 7.83381 17.0085 7.82568 17.1123L7.62631 19.6567C7.61256 19.8392 7.67818 20.0179 7.80756 20.1473C7.92506 20.2648 8.08443 20.3304 8.25006 20.3304C8.26568 20.3304 8.28193 20.3304 8.29818 20.3285L10.8613 20.131C10.9644 20.1229 11.0638 20.0898 11.1507 20.0342C11.2132 19.9942 12.7276 19.0073 16.5163 15.2454C17.4301 14.3379 18.1838 13.5479 18.8007 12.8723C18.7063 12.4667 18.3769 11.3092 17.5476 10.4985C16.7063 9.67541 15.4963 9.35291 15.0938 9.26416Z" fill="white"/>
</g>
<defs>
<linearGradient id="paint0_linear_242_96" x1="-6.22918e-08" y1="14" x2="27.9999" y2="14.0546" gradientUnits="userSpaceOnUse">
<stop stop-color="#B306A7"/>
<stop offset="0.95" stop-color="#4C0593"/>
</linearGradient>
<clipPath id="clip0_242_96">
<rect width="15" height="15" fill="white" transform="translate(7 6)"/>
</clipPath>
</defs>
</svg>
