<svg width="83" height="83" viewBox="0 0 83 83" fill="none" xmlns="http://www.w3.org/2000/svg">
<path d="M31.1213 19.0208C31.1213 16.1504 33.4384 13.8333 36.3088 13.8333C39.1792 13.8333 41.4963 16.1504 41.4963 19.0208C41.4963 21.8912 39.1792 24.2083 36.3088 24.2083C33.4384 24.2083 31.1213 21.8912 31.1213 19.0208ZM82.9963 17.2917V38.0417C82.9963 47.5867 75.2497 55.3333 65.7047 55.3333H34.5797C25.0347 55.3333 17.288 47.5867 17.288 38.0417V17.2917C17.288 7.74667 25.0347 0 34.5797 0H65.7047C75.2497 0 82.9963 7.74667 82.9963 17.2917ZM24.2047 38.0417C24.2047 40.7046 25.2076 43.1254 26.8676 44.9929L44.9893 26.8713C48.3784 23.4821 54.2922 23.4821 57.6813 26.8713L61.278 30.4679C62.0734 31.2633 63.4222 31.2633 64.2176 30.4679L76.0797 18.6058V17.2917C76.0797 11.5854 71.4109 6.91667 65.7047 6.91667H34.5797C28.8734 6.91667 24.2047 11.5854 24.2047 17.2917V38.0417ZM76.0797 38.0417V28.3929L69.0938 35.3787C65.7047 38.7679 59.7909 38.7679 56.4017 35.3787L52.8051 31.7821C52.0097 30.9867 50.6955 30.9867 49.8655 31.7821L33.3001 48.3475C33.7151 48.4167 34.1301 48.4167 34.5797 48.4167H65.7047C71.4109 48.4167 76.0797 43.7479 76.0797 38.0417ZM62.5576 62.3883C60.7247 61.8696 58.8226 62.9762 58.3038 64.8092L57.3009 68.475C56.5747 71.1379 54.8455 73.3858 52.4247 74.7346C50.0038 76.1179 47.2026 76.4637 44.5397 75.7375L14.5213 67.5067C8.988 65.985 5.73716 60.2787 7.25883 54.7454L10.5788 42.4338C11.063 40.6008 9.99091 38.6987 8.158 38.18C6.32508 37.6958 4.423 38.7679 3.90425 40.6008L0.618829 52.8779C-1.90575 62.0771 3.52383 71.6221 12.723 74.1467L42.7413 82.3775C44.263 82.7925 45.8192 83 47.3409 83C50.3151 83 53.2201 82.2392 55.883 80.7175C59.8947 78.435 62.7651 74.7346 64.0101 70.2733L65.013 66.6075C65.5317 64.7746 64.4251 62.8725 62.5922 62.3538L62.5576 62.3883Z" fill="#9D9D9D" fill-opacity="0.33"/>
</svg>
